<?xml version="1.0" standalone="no"?>
<!DOCTYPE svg PUBLIC "-//W3C//DTD SVG 20010904//EN"
 "http://www.w3.org/TR/2001/REC-SVG-20010904/DTD/svg10.dtd">
<svg version="1.0" xmlns="http://www.w3.org/2000/svg"
 width="1280.000000pt" height="853.000000pt" viewBox="0 0 1280.000000 853.000000"
 preserveAspectRatio="xMidYMid meet">
<metadata>
Created by potrace 1.15, written by Peter Selinger 2001-2017
</metadata>
<g transform="translate(0.000000,853.000000) scale(0.100000,-0.100000)"
fill="#000000" stroke="none">
<path d="M10525 6053 l-270 -73 -532 0 -533 0 0 -28 c0 -23 -9 -32 -59 -60
-39 -21 -72 -32 -100 -32 l-41 0 -2 -967 c-2 -533 -1 -996 0 -1030 l4 -62 96
-3 c85 -3 97 -5 96 -20 -2 -17 37 -18 676 -18 l678 0 271 146 c247 133 294
164 243 162 -9 0 -87 5 -172 11 l-154 12 -113 -55 c-62 -30 -113 -52 -113 -48
0 4 79 51 175 105 96 54 179 106 185 117 10 19 7 20 -107 22 -223 5 -219 5
-390 -50 l-162 -52 -297 0 c-183 0 -294 4 -289 9 6 5 119 69 253 141 133 73
242 137 242 144 0 8 -41 10 -142 8 -124 -3 -150 -7 -200 -28 -55 -23 -128 -32
-128 -16 0 4 9 22 20 40 11 18 20 37 20 42 0 6 -34 10 -77 10 l-78 0 229 130
c125 72 233 130 240 130 6 0 20 -8 31 -16 20 -15 19 -16 -15 -46 -19 -16 -51
-41 -72 -54 -77 -49 -55 -58 119 -46 87 6 128 13 140 24 10 9 45 29 78 46 43
21 66 40 81 67 16 28 50 55 130 105 61 37 111 75 112 85 3 11 0 15 -8 10 -6
-4 -54 -12 -107 -19 l-96 -12 29 24 c16 13 39 33 52 43 12 10 22 23 22 28 0
10 -82 6 -155 -8 -64 -12 -65 -13 188 129 121 68 208 122 210 133 3 10 0 17
-9 17 -28 0 -1050 -179 -1074 -188 -33 -12 -161 -34 -167 -28 -4 4 170 101
430 240 49 27 86 53 84 59 -3 7 -11 10 -18 8 -193 -50 -270 -75 -343 -110 -49
-22 -90 -40 -92 -39 -1 2 87 54 196 116 109 63 201 120 204 128 16 41 -164
-12 -363 -107 -79 -38 -146 -68 -148 -66 -2 2 82 52 185 110 169 96 194 107
238 107 41 0 51 4 59 22 13 29 35 36 28 9 -7 -29 18 -36 73 -21 24 7 47 10 51
7 3 -4 -31 -30 -76 -58 -44 -28 -81 -58 -81 -65 0 -10 6 -11 23 -4 12 5 76 23
142 41 112 30 128 38 250 119 72 47 184 117 250 155 150 85 243 146 274 179
l24 26 -28 0 c-46 0 -273 -85 -387 -145 -60 -31 -108 -54 -108 -52 0 3 100 63
223 133 281 161 297 171 297 188 0 10 -42 -2 -147 -41 -134 -49 -184 -70 -378
-157 -94 -43 -58 -19 208 134 136 78 250 147 253 152 17 27 -33 18 -281 -49z
m-740 -402 c-28 -26 -269 -151 -292 -151 -14 0 -23 3 -19 7 6 6 305 151 316
152 2 1 0 -3 -5 -8z m-276 -225 c-9 -8 -129 -66 -136 -66 -4 0 23 18 62 40 38
21 72 37 74 34 2 -2 2 -6 0 -8z"/>
<path d="M3045 6065 c-110 -48 -125 -52 -125 -31 0 26 -78 -1 -236 -81 l-152
-76 -48 18 c-102 38 -175 18 -277 -75 -98 -90 -147 -227 -150 -420 -4 -259
118 -434 406 -581 106 -54 362 -149 402 -149 8 0 15 -4 15 -9 0 -14 -23 -19
-42 -10 -10 6 -19 5 -23 -1 -8 -14 -194 -1 -229 16 -29 14 -33 12 -230 -116
-293 -189 -328 -213 -340 -232 -17 -28 15 -192 53 -272 103 -214 395 -339 796
-340 146 0 241 11 355 39 30 8 104 23 164 35 340 65 561 248 595 495 6 38 8
71 6 74 -3 2 -29 -1 -57 -8 -29 -7 -66 -11 -82 -9 -25 3 -9 15 134 103 90 56
165 106 167 112 3 7 -26 14 -81 18 -71 6 -85 10 -89 26 -3 12 -14 19 -29 19
-59 1 -43 18 82 89 145 83 220 140 198 151 -7 4 -47 15 -89 24 -75 17 -77 16
-113 -5 -29 -17 -45 -20 -81 -14 -25 3 -45 9 -45 13 0 4 18 17 40 30 64 36 53
48 -68 77 -71 17 -73 17 -117 -4 -52 -24 -85 -27 -85 -7 0 8 -20 19 -47 26
-45 11 -47 13 -29 26 11 8 23 14 28 14 20 0 5 29 -19 38 -62 24 -186 50 -202
42 -74 -38 -181 -63 -181 -42 0 4 68 45 150 90 101 55 161 82 183 82 28 0 49
17 162 131 125 126 129 131 95 126 -19 -2 -46 0 -59 4 -32 13 -19 26 90 95 86
55 104 75 57 67 -13 -2 -41 8 -63 22 -22 13 -52 30 -67 36 -16 6 -28 18 -28
26 0 15 -23 15 -62 -2 -10 -4 -18 -3 -18 1 0 5 48 38 107 73 l106 64 -39 20
c-36 18 -37 20 -19 33 10 8 22 14 27 14 4 0 8 5 8 10 0 6 -12 10 -27 10 -39 1
-169 82 -165 104 4 24 -10 20 -110 -24 -50 -22 -97 -40 -105 -40 -23 0 -154
80 -148 91 9 14 -2 11 -56 -16 -53 -27 -69 -26 -69 6 0 26 -10 24 -125 -26z
m167 -602 c67 -71 94 -111 82 -123 -5 -4 -56 -29 -113 -55 -94 -43 -107 -47
-145 -38 l-41 9 45 23 c25 13 48 29 52 35 8 13 -9 36 -28 36 -35 0 -19 22 36
50 77 39 77 57 -2 85 -80 28 -81 35 -6 35 l65 0 55 -57z m-63 -919 c17 -14 31
-30 31 -35 0 -11 -140 -12 -158 -1 -8 6 2 17 35 35 27 15 51 27 55 27 3 0 20
-12 37 -26z m72 -91 c6 -16 13 -40 16 -55 5 -28 5 -28 -46 -28 -36 0 -50 3
-45 11 4 7 3 10 -2 7 -5 -2 -65 -32 -134 -66 -109 -55 -227 -98 -237 -88 -4 4
418 245 430 246 4 0 12 -12 18 -27z m-21 -198 c-22 -24 -147 -71 -158 -60 -5
5 154 83 172 84 5 1 -1 -10 -14 -24z"/>
<path d="M7984 6090 c-13 -13 -438 -189 -443 -184 -3 2 13 23 35 45 l39 42
-40 -7 c-22 -3 -131 -6 -242 -6 l-202 0 -3 -57 c-3 -53 -5 -58 -28 -63 l-25
-5 -4 -1027 -4 -1028 26 0 c20 0 27 -5 27 -20 0 -20 7 -20 688 -20 l687 1 135
78 c74 44 136 85 138 93 2 11 -8 15 -40 14 -24 0 -60 3 -81 8 -36 7 -38 8 -23
25 23 26 20 29 -26 30 -24 0 -56 4 -72 9 -29 8 -27 10 75 71 107 66 139 89
139 101 0 4 -39 10 -86 14 -65 5 -114 1 -204 -14 -107 -18 -155 -20 -482 -18
l-363 3 112 63 c170 97 171 98 87 108 -43 5 -58 1 -132 -36 -46 -23 -85 -40
-87 -38 -2 2 59 38 134 81 138 79 211 130 211 149 0 6 -22 8 -57 6 -41 -3 -93
-20 -175 -55 -65 -28 -118 -49 -118 -46 0 3 9 16 20 30 11 14 20 29 20 34 0
13 -111 -2 -162 -22 -27 -10 -48 -17 -48 -14 0 2 83 54 185 115 105 63 185
118 185 126 0 14 -7 14 -75 -3 -11 -3 -103 -41 -205 -85 -246 -107 -250 -109
-250 -104 0 2 157 92 348 200 378 213 391 221 379 232 -9 9 -112 -21 -146 -43
-28 -18 -472 -223 -483 -223 -27 0 20 31 247 160 174 99 254 150 255 162 0 20
13 25 -243 -88 -236 -104 -259 -98 -69 20 84 52 160 97 171 101 25 8 71 44 71
56 0 20 -41 7 -141 -45 -140 -73 -365 -168 -387 -164 -23 5 5 22 333 205 297
166 357 202 362 219 8 26 -28 20 -82 -12 -50 -30 -149 -77 -502 -240 -46 -21
-73 -29 -73 -21 0 11 320 198 440 257 58 29 170 108 170 121 0 12 -46 1 -85
-22 -28 -17 -572 -265 -605 -276 -24 -8 566 325 652 368 88 44 175 120 145
127 -10 2 -41 -10 -70 -26 -29 -16 -146 -73 -262 -127 -115 -54 -241 -113
-279 -132 -37 -19 -70 -32 -72 -30 -2 2 58 37 133 76 218 115 384 218 456 283
37 33 67 63 67 68 0 12 -40 3 -59 -13 -9 -8 -99 -49 -201 -92 -102 -42 -189
-80 -195 -83 -5 -3 -2 4 9 16 10 12 33 26 51 32 37 12 146 121 128 127 -6 2
-69 -21 -139 -51 -70 -31 -128 -55 -130 -54 -1 2 73 47 165 100 132 77 180
111 227 160 54 58 57 63 36 66 -13 2 -31 -3 -40 -11 -9 -8 -37 -24 -62 -35
-25 -11 -80 -36 -122 -56 -43 -19 -78 -34 -78 -32 0 2 77 46 171 97 132 73
181 105 216 143 56 63 67 82 49 89 -7 3 -18 1 -22 -3z"/>
<path d="M5136 5972 c-3 -5 -185 -496 -405 -1093 -219 -596 -402 -1092 -406
-1101 -7 -17 8 -18 225 -18 222 0 232 1 237 20 4 15 15 20 56 22 l51 3 80 198
80 197 337 0 337 0 52 -127 c29 -71 69 -168 90 -218 l37 -90 54 -3 c53 -3 57
-1 384 184 182 102 336 191 343 196 17 14 15 21 -8 36 -17 10 -24 10 -43 -2
-40 -26 -437 -195 -437 -186 0 10 38 41 120 98 40 28 54 44 52 58 -2 10 -5 20
-6 21 0 1 -31 -4 -69 -11 -60 -12 -67 -11 -67 3 0 9 7 26 15 38 14 20 12 24
-20 63 -19 23 -38 53 -41 66 -6 25 -40 33 -59 15 -6 -5 -47 -21 -93 -36 -151
-49 -117 -15 120 124 173 101 208 125 208 146 0 16 -25 26 -36 15 -15 -13
-476 -211 -481 -206 -7 6 34 31 313 190 204 117 240 141 239 159 -2 17 -8 22
-27 20 -14 -1 -145 -56 -293 -123 -147 -67 -269 -119 -271 -117 -8 8 116 83
300 182 235 126 251 138 251 175 0 30 -20 41 -40 21 -6 -5 -86 -41 -180 -81
-93 -40 -173 -74 -177 -77 -5 -2 -8 -2 -8 1 0 3 28 24 63 47 34 23 75 53 91
66 28 23 28 24 7 30 -17 4 -19 8 -10 19 30 36 -30 19 -181 -50 -90 -42 -165
-74 -167 -73 -1 2 122 73 274 158 364 202 357 197 358 248 1 31 -3 41 -15 41
-9 0 -20 -4 -25 -9 -14 -13 -348 -162 -352 -157 -2 2 21 18 51 36 63 35 86 64
60 74 -11 4 -15 14 -12 31 7 32 -3 32 -92 -5 -40 -16 -75 -30 -78 -30 -3 0 5
11 18 25 l24 25 -23 16 c-17 12 -21 22 -17 40 6 23 4 24 -42 24 -55 0 -79 14
-84 50 -2 17 -9 25 -21 24 -34 -3 2 23 98 72 52 26 95 52 95 57 0 5 -9 11 -20
14 -23 6 -37 42 -21 53 7 3 9 14 5 23 -5 15 -9 15 -41 2 -45 -19 -54 -19 -47
0 4 8 2 15 -4 15 -13 0 -36 56 -28 69 4 5 30 23 59 40 29 17 62 40 72 51 18
20 18 21 -1 34 -14 11 -19 27 -19 60 0 25 -3 46 -6 46 -4 0 -57 -21 -118 -46
-109 -45 -113 -46 -132 -28 -13 12 -18 26 -15 40 5 18 -4 33 -41 68 l-48 46
-212 0 c-116 0 -214 -4 -217 -8z m335 -1045 c62 -178 62 -179 45 -213 -21 -46
-20 -51 7 -51 29 0 67 -31 67 -55 0 -17 -15 -18 -196 -18 -153 0 -195 3 -192
13 74 213 194 523 200 514 4 -7 35 -92 69 -190z"/>
<path d="M6400 3915 c-108 -49 -199 -84 -218 -85 -27 0 -35 -5 -47 -32 -12
-28 -12 -35 0 -47 12 -12 19 -12 40 -3 14 7 47 12 73 12 40 0 68 12 214 96
150 85 190 114 158 114 -5 0 -9 5 -7 12 5 26 -36 13 -213 -67z"/>
</g>
</svg>
